<?xml version="1.0" encoding="UTF-8" standalone="no"?>
<!-- Created with Inkscape (http://www.inkscape.org/) -->
<svg id="svg1960" xmlns:rdf="http://www.w3.org/1999/02/22-rdf-syntax-ns#" xmlns="http://www.w3.org/2000/svg" height="256" width="256" version="1.0" xmlns:cc="http://creativecommons.org/ns#" xmlns:dc="http://purl.org/dc/elements/1.1/">
 <metadata id="metadata3053">
  <rdf:RDF>
   <cc:Work rdf:about="">
    <dc:format>image/svg+xml</dc:format>
    <dc:type rdf:resource="http://purl.org/dc/dcmitype/StillImage"/>
    <dc:title/>
   </cc:Work>
  </rdf:RDF>
 </metadata>
 <path id="path17" d="m217.29 35.453c-5.5742-2.286-10.725-2.5536-16.987-2.4746l-106.11 0.58212c-21.897-1.1133-43.483 4.2495-62.141 14.99l0.0193 0.0221c-3.3371 1.8189-5.608 5.3649-5.608 9.4314 0 5.9269 4.8098 10.733 10.733 10.733 3.0917 0 5.867-1.3143 7.8273-3.4036 23.33-12.504 51.845-14.909 78.181-4.0931 46.779 19.202 69.214 72.888 50.007 119.66-5.1513 12.544-12.801 23.318-22.116 32.032l0.0818 0.11526c-3.1878 1.8597-5.3404 5.3115-5.3404 9.2716 0 5.9267 4.813 10.729 10.741 10.729 3.8111 0 7.1584-2.0002 9.0628-5.0105 11.35-10.67 20.654-23.86 26.949-39.189 0.43387-1.0467 43.91-106.94 44.021-107.23 7.4226-18.074-1.2436-38.754-19.318-46.173z" fill="#f79a10"/>
 <path id="path3064" d="m87.938 78.656c-37.347 0-67.626 30.284-67.626 67.624 0 37.35 30.279 67.63 67.626 67.63 37.342 0 67.622-30.28 67.622-67.63 0-37.34-30.28-67.624-67.622-67.624zm-0.282 23.404c5.76 0 10.563 4.8 10.563 10.56 0 6-4.813 10.69-10.813 10.69-5.64 0-10.437-4.93-10.437-10.69s4.807-10.56 10.687-10.56zm9.719 31.69v39.47 5.66c0 4.67 1.305 5.5 8.625 5.5h0.72v6.12h-37.564v-6.12h0.5c7.56 0 8.875-0.83 8.875-5.63v-5.53-21.25c0-10.68-0.367-11.28-7.687-11.28h-1.688v-6.1l28.219-0.84z" fill-rule="evenodd" fill="#666"/>
</svg>
