<?xml version="1.0" encoding="UTF-8" standalone="no"?>
<!-- Created with Inkscape (http://www.inkscape.org/) -->
<svg id="svg1960" xmlns:rdf="http://www.w3.org/1999/02/22-rdf-syntax-ns#" xmlns="http://www.w3.org/2000/svg" height="256" width="256" version="1.0" xmlns:cc="http://creativecommons.org/ns#" xmlns:dc="http://purl.org/dc/elements/1.1/">
 <metadata id="metadata3053">
  <rdf:RDF>
   <cc:Work rdf:about="">
    <dc:format>image/svg+xml</dc:format>
    <dc:type rdf:resource="http://purl.org/dc/dcmitype/StillImage"/>
    <dc:title/>
   </cc:Work>
  </rdf:RDF>
 </metadata>
 <g id="text3039" fill="#666" transform="matrix(1.3285 0 0 1.3285 -25.51 -48.196)">
  <path id="path3812" fill="#666" d="m137.25 146.75c-0.00012 14.346-5.0782 26.597-15.234 36.753-10.156 10.114-22.407 15.171-36.753 15.171-14.346-0.00001-26.597-5.057-36.753-15.171-10.156-10.156-15.234-22.407-15.234-36.753-0.000013-14.346 5.0781-26.597 15.234-36.753s22.407-15.234 36.753-15.234c14.346 0.000091 26.597 5.0782 36.753 15.234s15.234 22.407 15.234 36.753m-8.5059 0c-0.00011-12.018-4.253-22.28-12.759-30.786-8.4636-8.5058-18.705-12.759-30.723-12.759-12.018 0.00009-22.28 4.253-30.786 12.759-8.5059 8.5059-12.759 18.768-12.759 30.786-0.000022 12.018 4.2529 22.28 12.759 30.786 8.5058 8.4635 18.768 12.695 30.786 12.695s22.259-4.2318 30.723-12.695c8.5058-8.5058 12.759-18.768 12.759-30.786m-32.817-26.787c-0.000076 2.7507-1.058 5.0993-3.1738 7.0459-2.0736 1.9467-4.5704 2.92-7.4902 2.9199-2.9623 0.00005-5.4802-0.97326-7.5537-2.9199-2.0736-1.9466-3.1104-4.2952-3.1104-7.0459-0.000054-2.7506 1.0367-5.0992 3.1104-7.0459 2.0735-1.9465 4.5914-2.9198 7.5537-2.9199 2.9199 0.00008 5.4166 0.97339 7.4902 2.9199 2.1158 1.9467 3.1738 4.2953 3.1738 7.0459m-1.9678 65.635h-17.456v-49.512h17.456v49.512"/>
 </g>
 <path id="path17" fill="#f79a10" d="m217.29 35.453c-5.5742-2.286-10.725-2.5536-16.987-2.4746l-106.11 0.58212c-21.897-1.1133-43.483 4.2495-62.141 14.99l0.0193 0.0221c-3.3371 1.8189-5.608 5.3649-5.608 9.4314 0 5.9269 4.8098 10.733 10.733 10.733 3.0917 0 5.867-1.3143 7.8273-3.4036 23.33-12.504 51.845-14.909 78.181-4.0931 46.779 19.202 69.214 72.888 50.007 119.66-5.1513 12.544-12.801 23.318-22.116 32.032l0.0818 0.11526c-3.1878 1.8597-5.3404 5.3115-5.3404 9.2716 0 5.9267 4.813 10.729 10.741 10.729 3.8111 0 7.1584-2.0002 9.0628-5.0105 11.35-10.67 20.654-23.86 26.949-39.189 0.43387-1.0467 43.91-106.94 44.021-107.23 7.4226-18.074-1.2436-38.754-19.318-46.173z"/>
</svg>
